<svg width="143" height="122" viewBox="0 0 143 122" fill="none" xmlns="http://www.w3.org/2000/svg">
<path d="M126.571 59.0359V22.5713C126.571 22.5666 126.567 22.5631 126.567 22.5584C126.565 22.3056 126.517 22.0494 126.407 21.8037C126.37 21.7206 126.302 21.6656 126.255 21.5913C126.211 21.5197 126.169 21.4613 126.116 21.3966C125.895 21.1278 125.628 20.9137 125.31 20.8003C125.301 20.7969 125.297 20.7862 125.287 20.7831L99.4607 12.0525C99.4582 12.0516 99.4553 12.0509 99.4529 12.05L64.106 0.100313C63.7141 -0.0334375 63.2879 -0.0334375 62.896 0.100313L1.71473 20.8175C1.61223 20.8525 1.53754 20.9241 1.44535 20.9738C1.39223 21.0016 1.33004 20.9987 1.2791 21.0319C1.24723 21.0528 1.2341 21.0912 1.20379 21.1141C1.0191 21.2525 0.870664 21.4184 0.749727 21.6097C0.720664 21.6556 0.677852 21.6888 0.652852 21.7369C0.523477 21.9847 0.456289 22.2575 0.446602 22.5422C0.445977 22.5606 0.433164 22.5762 0.433164 22.595L3.90934e-05 89.5997C-0.00464841 90.3303 0.412539 90.9987 1.0716 91.3144L64.2047 121.543C64.4629 121.668 64.7416 121.728 65.0207 121.728L65.0219 121.727L65.0232 121.728C65.3066 121.728 65.5969 121.663 65.8691 121.527L100.404 104.175C104.873 107.662 110.476 109.761 116.571 109.761C131.102 109.761 142.925 97.9381 142.925 83.4069C142.925 72.4153 136.155 62.9838 126.571 59.0359ZM116.571 57.0522C104.516 57.0522 94.3497 65.1981 91.2257 76.2669L75.2194 83.4503C74.2675 83.8766 73.8413 84.9944 74.2697 85.9441C74.5832 86.6447 75.2722 87.0597 75.9913 87.0597C76.2516 87.0597 76.5144 87.0066 76.7635 86.8938L90.3485 80.7969C90.2635 81.6559 90.2163 82.5256 90.2163 83.4066C90.2163 85.2316 90.4038 87.0134 90.7588 88.7347L78.0197 94.8194C77.0794 95.2687 76.6807 96.3959 77.13 97.3363C77.4529 98.0138 78.1303 98.4103 78.8357 98.4103C79.1075 98.4103 79.3841 98.3528 79.6469 98.2259L91.8325 92.4053C93.0719 95.8009 94.9819 98.8691 97.415 101.451L66.9272 116.768L67.3344 50.195L122.796 25.4781V57.8263C120.796 57.3391 118.718 57.0522 116.571 57.0522ZM27.0875 34.9928L39.4847 40.1691V59.5253L33.3703 53.4822C32.8241 52.9428 32.006 52.7884 31.3007 53.0903L27.0875 54.8928V34.9928ZM30.0897 32.1544L82.2925 10.2344L93.5228 14.0309L41.1932 36.7906L30.0897 32.1544ZM98.8494 15.8316L119.504 22.8138L65.4319 46.9116L46.0229 38.8072L98.8494 15.8316ZM63.5019 3.8825L76.891 8.40875L25.1991 30.1125L7.66379 22.7903L63.5019 3.8825ZM4.19004 25.4316L23.3122 33.4162V57.7553C23.3122 58.3891 23.6304 58.9816 24.1604 59.3319C24.6882 59.68 25.361 59.7397 25.9419 59.4909L31.6185 57.0619L40.0444 65.3913C40.4063 65.7463 40.8857 65.9353 41.3719 65.9353C41.6185 65.9353 41.865 65.8894 42.1004 65.79C42.8032 65.4972 43.2597 64.8081 43.2597 64.0475V41.7459L63.5575 50.2216L63.1519 116.851L3.78441 88.4266L4.19004 25.4316ZM116.571 105.986C104.121 105.986 93.9913 95.8569 93.9913 83.4069C93.9913 70.9569 104.121 60.8275 116.571 60.8275C129.021 60.8275 139.15 70.9569 139.15 83.4069C139.15 95.8569 129.021 105.986 116.571 105.986Z" fill="#0E1422"/>
<path d="M127.004 73.0562L111.217 87.7119L108.479 83.8422C107.877 82.9941 106.697 82.7913 105.847 83.3906C104.994 83.9944 104.794 85.1722 105.395 86.0225L109.38 91.6528C109.696 92.0975 110.187 92.3834 110.728 92.4409C110.793 92.4478 110.858 92.4503 110.922 92.4503C111.397 92.4503 111.856 92.2728 112.206 91.9456L129.572 75.8219C130.337 75.1119 130.381 73.9181 129.671 73.1553C128.961 72.3856 127.762 72.3441 127.004 73.0562Z" fill="#6FA479"/>
</svg>
